<svg xmlns="http://www.w3.org/2000/svg" width="406" height="406" viewBox="0 0 406 406">
<g>
<path d="M 0.00 0.00 L 406.00 0.00 L 406.00 406.00 L 0.00 406.00 ZM 159.85 378.48 C184.84,381.89 215.79,378.57 237.41,370.18 L 242.31 368.27 L 228.91 367.73 C213.47,367.10 205.05,365.03 192.50,358.76 C172.20,348.63 158.64,332.69 151.86,310.97 C149.92,304.76 149.54,301.39 149.58,291.00 C149.63,280.25 150.00,277.38 152.28,270.50 C156.92,256.47 166.76,242.84 177.62,235.38 C182.32,232.15 182.91,231.45 181.11,231.18 C179.92,231.00 175.02,232.75 170.22,235.07 C158.55,240.70 147.05,251.95 141.65,263.00 C135.81,274.96 133.63,285.39 134.32,297.98 C135.04,311.14 136.82,317.82 143.01,330.62 C146.88,338.62 149.53,342.47 155.70,349.03 C159.99,353.60 165.20,358.57 167.29,360.08 C169.37,361.60 170.67,363.09 170.17,363.39 C169.21,363.99 156.08,361.89 148.84,359.98 C142.10,358.21 125.25,349.38 117.44,343.53 C91.56,324.14 75.87,287.62 79.90,256.17 C81.40,244.46 86.14,229.97 91.73,220.00 C98.02,208.79 113.29,193.14 124.00,186.95 C133.73,181.31 144.29,177.24 155.50,174.79 C163.57,173.02 169.34,172.78 211.50,172.45 C237.35,172.25 261.65,171.63 265.50,171.06 C266.21,170.96 266.87,170.86 267.49,170.77 C271.86,170.11 273.81,169.82 274.57,170.64 C275.18,171.29 275.03,172.65 274.76,175.09 C274.71,175.52 274.66,175.98 274.61,176.48 C273.91,183.33 268.40,200.44 264.88,206.71 C260.70,214.15 250.43,226.63 243.85,232.25 C236.58,238.46 225.27,245.29 217.73,248.04 C214.31,249.29 211.07,250.69 210.55,251.16 C209.02,252.52 204.71,252.18 205.33,250.75 C205.63,250.06 207.52,245.77 209.52,241.21 C214.10,230.81 216.97,217.13 216.99,205.63 L 217.00 196.76 L 191.75 197.26 C162.47,197.85 157.99,198.74 142.00,207.14 C117.42,220.05 103.39,245.36 105.29,273.36 C105.91,282.49 108.00,286.39 108.00,278.41 C108.00,265.41 116.50,246.70 127.87,234.66 C136.53,225.49 151.58,217.05 163.92,214.43 C167.88,213.59 176.59,213.03 185.77,213.02 L 201.04 213.00 L 200.43 215.75 C195.77,236.77 190.06,247.83 176.65,261.75 L 169.66 269.00 L 186.73 269.00 C223.40,269.00 247.03,264.17 274.66,251.01 C317.52,230.61 350.35,192.66 366.37,145.00 C371.49,129.77 374.23,117.24 376.44,99.00 C378.18,84.52 380.49,39.15 379.52,38.19 C379.16,37.83 377.44,38.37 375.69,39.39 C356.96,50.28 349.87,53.39 333.50,57.87 C309.73,64.38 288.96,65.99 229.00,66.00 C202.32,66.00 175.57,66.47 169.55,67.04 C139.33,69.91 111.74,80.39 88.50,97.83 C81.86,102.81 66.70,117.73 60.38,125.50 C46.53,142.53 34.33,169.07 29.36,193.00 C27.12,203.76 26.80,237.59 28.83,249.00 C32.78,271.19 41.68,293.77 53.27,311.00 C59.43,320.15 61.94,323.16 72.36,333.87 C95.62,357.77 127.59,374.08 159.85,378.48 ZM 71.69 307.25 C71.93,307.66 71.94,308.00 71.71,308.00 C70.71,308.00 67.74,303.79 62.61,295.11 C48.79,271.70 41.54,243.30 44.01,222.29 C47.54,192.25 65.82,165.88 94.00,150.18 C102.08,145.68 118.90,139.38 127.76,137.53 C148.15,133.27 156.05,132.79 217.50,131.98 C279.37,131.18 281.37,131.05 300.25,126.56 C320.48,121.75 339.68,111.78 353.38,98.96 C356.89,95.68 360.10,93.00 360.52,93.00 C362.49,93.00 357.78,118.96 352.99,134.55 C344.16,163.21 330.22,186.67 310.37,206.25 C296.24,220.19 273.17,235.80 261.94,239.02 C258.99,239.86 259.05,239.73 264.04,234.26 C269.32,228.49 277.32,217.19 280.49,211.04 C286.46,199.43 290.58,181.30 291.44,162.75 C291.49,161.72 291.54,160.76 291.58,159.88 C291.87,154.16 292.01,151.45 290.79,150.51 C289.69,149.68 287.50,150.27 283.33,151.41 C282.61,151.61 281.84,151.82 281.00,152.04 C265.72,156.10 253.15,157.00 211.20,157.01 C170.17,157.02 158.88,157.71 146.02,161.00 C129.13,165.33 109.90,175.55 98.31,186.37 C67.24,215.38 56.35,257.62 69.13,299.50 C70.30,303.35 71.46,306.84 71.69,307.25 ZM 50.10 183.26 C48.39,187.25 47.00,189.20 47.00,187.61 C47.00,185.05 52.38,171.00 57.00,161.50 C66.75,141.44 76.49,128.56 91.41,116.04 C111.17,99.46 131.50,89.77 157.00,84.80 C166.62,82.92 172.93,82.69 232.00,82.01 C290.59,81.33 297.71,81.07 309.67,79.15 C328.67,76.11 339.96,73.42 350.71,69.39 C355.92,67.44 360.38,66.04 360.61,66.28 C361.37,67.04 351.86,79.29 346.30,84.73 C334.82,95.95 317.30,105.69 300.84,110.00 C278.41,115.86 275.09,116.13 214.50,116.98 C157.09,117.79 154.96,117.94 133.50,122.60 C118.19,125.93 111.83,128.12 99.67,134.29 C77.77,145.38 57.94,164.97 50.10,183.26 Z" fill="rgb(17,28,45)"/>
<path d="M 71.69 307.25 C71.46,306.84 70.30,303.35 69.13,299.50 C56.35,257.62 67.24,215.38 98.31,186.37 C104.41,180.68 112.62,175.15 121.50,170.56 C111.39,176.01 102.64,182.61 103.47,184.77 C103.84,185.76 103.54,186.04 102.52,185.65 C101.70,185.33 99.99,186.07 98.71,187.29 C97.44,188.50 97.10,189.01 97.95,188.40 C101.06,186.20 101.80,186.04 102.34,187.45 C102.69,188.35 102.42,188.71 101.64,188.41 C100.94,188.15 99.50,188.96 98.44,190.21 L 96.50 192.50 L 98.81 190.54 C100.57,189.04 101.31,188.88 101.90,189.84 C102.51,190.83 102.92,190.80 103.84,189.69 C105.10,188.18 110.00,188.57 110.00,190.18 C110.00,190.69 110.45,190.84 111.00,190.50 C112.34,189.67 112.28,191.32 110.91,192.69 C110.13,193.47 110.15,193.97 110.98,194.49 C111.67,194.92 112.35,194.36 112.68,193.10 C112.99,191.95 113.66,191.00 114.18,191.00 C114.69,191.00 114.79,191.56 114.39,192.25 C113.99,192.94 114.58,192.69 115.70,191.71 C117.49,190.14 123.43,186.89 129.66,183.89 C127.74,184.85 125.86,185.87 124.00,186.95 C113.29,193.14 98.02,208.79 91.73,220.00 C86.14,229.97 81.40,244.46 79.90,256.17 C75.87,287.62 91.56,324.14 117.44,343.53 C124.39,348.73 138.49,356.30 146.27,359.15 C144.73,358.75 143.22,358.33 141.79,357.90 C120.52,351.61 97.55,337.80 82.83,322.45 C75.53,314.83 68.00,305.91 68.00,304.88 C68.00,304.54 65.92,300.74 63.24,296.17 C67.98,304.13 70.75,308.00 71.71,308.00 C71.94,308.00 71.93,307.66 71.69,307.25 ZM 50.10 183.26 C57.94,164.97 77.77,145.38 99.67,134.29 C111.57,128.26 117.92,126.02 132.52,122.82 C132.06,122.93 131.58,123.04 131.10,123.16 C121.61,125.49 117.20,127.94 123.42,127.45 C125.39,127.29 127.00,127.61 127.00,128.14 C127.00,128.68 127.45,128.84 128.00,128.50 C129.79,127.39 129.05,129.95 127.06,131.75 C124.63,133.95 120.96,136.81 119.00,138.03 C116.85,139.37 119.21,139.30 126.68,137.77 C117.59,139.87 101.76,145.86 94.00,150.18 C65.82,165.88 47.54,192.25 44.01,222.29 C43.53,226.37 43.41,230.73 43.64,235.28 C43.20,229.49 43.09,223.59 43.33,217.56 C43.87,203.49 45.44,190.26 47.02,186.50 C47.12,186.25 47.26,185.89 47.42,185.45 C47.15,186.44 47.00,187.18 47.00,187.61 C47.00,189.20 48.39,187.25 50.10,183.26 ZM 269.25 220.01 C272.45,221.96 273.87,222.54 272.77,221.44 C272.46,221.13 273.31,219.78 274.66,218.43 C276.01,217.08 276.83,215.54 276.49,214.99 C276.16,214.45 276.31,214.00 276.83,214.00 C277.35,214.00 278.45,212.54 279.28,210.75 C280.11,208.96 282.22,204.42 283.96,200.65 C285.58,197.16 286.93,193.23 288.03,188.84 C286.13,197.41 283.55,205.08 280.49,211.04 C277.32,217.19 269.32,228.49 264.04,234.26 C259.81,238.89 259.12,239.70 260.80,239.32 C246.68,245.21 231.20,249.52 220.00,250.54 C217.52,250.77 213.07,251.23 210.11,251.57 C210.02,251.58 209.93,251.59 209.84,251.59 C210.11,251.48 210.35,251.33 210.55,251.16 C211.07,250.69 214.31,249.29 217.73,248.04 C225.27,245.29 236.58,238.46 243.85,232.25 C250.37,226.67 260.54,214.35 264.78,206.89 C264.66,207.12 264.54,207.34 264.41,207.56 C263.00,210.10 262.10,212.43 262.41,212.74 C262.73,213.06 262.47,213.93 261.85,214.68 C260.94,215.77 261.08,215.91 262.52,215.35 C263.76,214.88 264.10,215.03 263.61,215.82 C263.14,216.58 263.43,216.77 264.45,216.38 C265.30,216.05 266.00,216.29 266.00,216.91 C266.00,217.52 267.46,218.92 269.25,220.01 ZM 289.53 112.79 C292.95,112.04 296.55,111.12 300.84,110.00 C317.30,105.69 334.82,95.95 346.30,84.73 C351.86,79.29 361.37,67.04 360.61,66.28 C360.38,66.04 355.92,67.44 350.71,69.39 C341.19,72.96 331.25,75.47 315.91,78.12 C335.03,74.82 346.01,71.65 360.40,65.48 C362.37,64.64 362.45,64.88 360.83,93.35 C360.76,93.12 360.65,93.00 360.52,93.00 C360.10,93.00 356.89,95.68 353.38,98.96 C347.77,104.22 341.23,108.99 334.07,113.13 C334.99,112.46 335.50,111.90 335.50,111.50 C335.50,110.95 333.96,109.73 332.09,108.80 C328.48,107.00 326.81,105.12 327.62,103.80 C327.90,103.36 327.61,103.00 327.00,103.00 C326.39,103.00 326.16,102.54 326.51,101.98 C326.86,101.42 327.67,101.27 328.32,101.64 C328.97,102.02 329.17,101.96 328.77,101.51 C328.36,101.06 328.81,100.06 329.77,99.28 C331.21,98.10 330.99,98.11 328.50,99.32 C317.44,104.69 308.13,108.24 299.14,110.49 C295.55,111.39 292.46,112.15 289.53,112.79 ZM 159.71 199.75 C159.47,199.81 159.24,199.88 159.00,199.95 C151.02,202.28 135.78,209.83 136.55,211.08 C136.80,211.49 136.45,212.03 135.76,212.28 C134.95,212.57 135.51,213.54 137.32,214.99 L 140.13 217.25 L 137.32 220.19 C135.21,222.39 134.98,222.94 136.42,222.39 C137.75,221.88 138.11,222.01 137.61,222.83 C136.24,225.04 140.06,224.03 148.44,219.97 C151.62,218.43 154.51,217.21 157.42,216.25 C146.63,219.94 135.05,227.05 127.87,234.66 C116.50,246.70 108.00,265.41 108.00,278.41 C108.00,286.39 105.91,282.49 105.29,273.36 C103.39,245.36 117.42,220.05 142.00,207.14 C149.12,203.40 153.95,201.15 159.71,199.75 ZM 132.36 216.51 C133.17,218.61 134.55,218.36 134.72,216.08 C134.91,213.53 132.48,212.70 130.82,214.75 C130.09,215.66 130.01,216.08 130.65,215.70 C131.28,215.32 132.05,215.68 132.36,216.51 ZM 135.00 219.08 C135.00,220.40 136.58,220.21 137.78,218.75 C138.49,217.88 138.39,217.12 137.45,216.26 C136.60,215.48 135.88,215.39 135.49,216.01 C135.16,216.55 135.47,217.04 136.19,217.08 C137.20,217.14 137.21,217.27 136.25,217.66 C135.56,217.94 135.00,218.58 135.00,219.08 ZM 345.58 154.67 C342.83,161.23 339.88,167.27 336.88,172.30 C334.02,177.10 330.93,181.75 327.64,186.21 C334.67,176.55 340.63,166.07 345.58,154.67 ZM 323.19 118.71 C315.88,122.02 308.14,124.68 300.25,126.56 C298.48,126.98 296.85,127.37 295.31,127.71 C290.25,128.90 285.95,129.69 280.10,130.24 C269.52,131.27 253.83,131.51 217.50,131.98 C253.31,131.52 269.34,131.27 280.10,130.24 C285.85,129.69 290.09,128.90 295.31,127.71 C297.25,127.26 299.30,126.75 301.59,126.18 C308.32,124.49 316.54,121.56 323.19,118.71 ZM 136.98 180.56 C138.71,179.82 140.33,179.17 141.73,178.66 C147.53,176.57 151.81,175.22 157.74,174.33 C156.99,174.47 156.26,174.62 155.50,174.79 C149.11,176.18 142.92,178.11 136.98,180.56 ZM 153.80 159.32 C164.59,157.46 178.38,157.01 211.20,157.01 C181.72,157.01 165.73,157.43 153.80,159.32 ZM 359.84 104.79 C358.91,111.46 357.30,118.92 355.22,126.56 C357.09,119.26 358.78,111.19 359.84,104.79 ZM 130.77 92.29 C139.00,88.93 146.39,86.86 157.00,84.80 C147.64,86.62 138.97,89.08 130.77,92.29 ZM 305.65 210.67 C299.63,216.18 293.24,221.18 286.58,225.61 C293.17,221.07 299.87,215.86 305.65,210.67 ZM 61.57 293.31 C55.72,283.12 51.28,272.58 48.24,261.62 C51.32,272.40 55.85,283.28 61.57,293.31 ZM 49.34 179.63 C49.41,179.42 49.47,179.21 49.54,179.00 C50.44,176.05 52.42,171.33 54.84,166.14 C52.81,170.68 50.81,175.61 49.34,179.63 ZM 252.82 171.72 C242.50,172.05 227.29,172.33 211.50,172.45 C199.83,172.54 190.94,172.63 184.03,172.74 C191.43,172.59 200.54,172.51 212.00,172.42 C227.57,172.31 242.59,172.04 252.82,171.72 ZM 63.08 149.93 C64.71,147.00 66.25,144.42 67.54,142.50 C68.85,140.56 70.22,138.65 71.64,136.77 C68.64,140.82 65.82,145.15 63.08,149.93 ZM 87.59 119.36 C92.71,114.67 98.24,110.33 104.09,106.41 C99.81,109.32 95.59,112.53 91.41,116.04 C90.09,117.14 88.82,118.25 87.59,119.36 ZM 161.49 362.57 C165.92,363.29 169.60,363.69 170.16,363.40 C169.48,363.77 166.06,363.39 161.49,362.57 ZM 291.22 166.54 C291.29,165.46 291.34,164.37 291.40,163.25 C291.45,162.15 291.50,161.13 291.55,160.19 C291.85,154.24 291.99,151.46 290.74,150.51 C290.27,150.16 289.59,150.06 288.65,150.16 C289.62,150.06 290.31,150.15 290.79,150.51 C292.01,151.45 291.87,154.16 291.58,159.88 C291.54,160.76 291.49,161.72 291.44,162.75 C291.38,164.02 291.31,165.28 291.22,166.54 ZM 267.27 201.58 C268.92,197.57 270.67,192.48 272.05,187.75 C270.73,192.42 269.06,197.33 267.27,201.58 ZM 274.69 170.79 C274.65,170.73 274.61,170.68 274.57,170.64 C274.19,170.23 273.53,170.10 272.42,170.15 C273.14,170.07 273.65,170.02 273.89,170.02 C274.26,170.01 274.52,170.28 274.69,170.79 ZM 185.77 213.02 C180.62,213.02 175.62,213.20 171.52,213.51 C175.54,213.16 180.15,213.02 185.77,213.02 ZM 206.10 251.81 C205.22,251.72 205.05,251.41 205.29,250.84 L 205.30 250.83 C205.16,251.28 205.51,251.61 206.10,251.81 ZM 164.85 118.09 C171.64,117.74 180.33,117.52 192.75,117.31 C180.63,117.52 171.81,117.74 164.85,118.09 ZM 274.72 175.49 C274.73,175.35 274.75,175.22 274.76,175.09 C274.78,174.95 274.79,174.81 274.81,174.68 C274.78,174.94 274.75,175.21 274.72,175.49 Z" fill="rgb(187,190,193)"/>
<path d="M 159.85 378.48 C127.59,374.08 95.62,357.77 72.36,333.87 C61.94,323.16 59.43,320.15 53.27,311.00 C41.68,293.77 32.78,271.19 28.83,249.00 C26.80,237.59 27.12,203.76 29.36,193.00 C34.33,169.07 46.53,142.53 60.38,125.50 C66.70,117.73 81.86,102.81 88.50,97.83 C111.74,80.39 139.33,69.91 169.55,67.04 C175.57,66.47 202.32,66.00 229.00,66.00 C288.96,65.99 309.73,64.38 333.50,57.87 C349.87,53.39 356.96,50.28 375.69,39.39 C377.44,38.37 379.16,37.83 379.52,38.19 C380.49,39.15 378.18,84.52 376.44,99.00 C374.23,117.24 371.49,129.77 366.37,145.00 C350.35,192.66 317.52,230.61 274.66,251.01 C247.03,264.17 223.40,269.00 186.73,269.00 L 169.66 269.00 L 176.65 261.75 C190.06,247.83 195.77,236.77 200.43,215.75 L 201.04 213.00 L 185.77 213.02 C167.44,213.04 159.84,214.45 148.44,219.97 C140.06,224.03 136.24,225.04 137.61,222.83 C138.11,222.01 137.75,221.88 136.42,222.39 C134.98,222.94 135.21,222.39 137.32,220.19 L 140.13 217.25 L 137.32 214.99 C135.51,213.54 134.95,212.57 135.76,212.28 C136.45,212.03 136.80,211.49 136.55,211.08 C135.78,209.83 151.02,202.28 159.00,199.95 C165.55,198.04 169.69,197.70 191.75,197.26 L 217.00 196.76 L 216.99 205.63 C216.97,217.13 214.10,230.81 209.52,241.21 C207.52,245.77 205.61,250.10 205.29,250.84 C204.84,251.91 205.82,252.05 210.11,251.57 C213.07,251.23 217.52,250.77 220.00,250.54 C233.85,249.28 254.22,242.98 270.50,234.92 C297.12,221.73 320.66,199.53 336.88,172.30 C348.49,152.81 359.42,118.15 360.62,97.00 C362.45,64.91 362.45,64.61 360.40,65.48 C344.51,72.29 332.78,75.45 309.67,79.15 C297.71,81.07 290.59,81.33 232.00,82.01 C172.93,82.69 166.62,82.92 157.00,84.80 C143.40,87.45 135.08,90.10 123.50,95.47 C100.63,106.09 80.89,122.68 67.54,142.50 C62.01,150.72 51.93,171.14 49.54,179.00 C48.61,182.02 47.48,185.40 47.02,186.50 C45.44,190.26 43.87,203.49 43.33,217.56 C42.24,245.84 48.57,271.33 62.54,294.97 C65.54,300.06 68.00,304.51 68.00,304.88 C68.00,305.91 75.53,314.83 82.83,322.45 C97.55,337.80 120.52,351.61 141.79,357.90 C153.06,361.24 168.75,364.27 170.17,363.39 C170.67,363.09 169.37,361.60 167.29,360.08 C165.20,358.57 159.99,353.60 155.70,349.03 C149.53,342.47 146.88,338.62 143.01,330.62 C136.82,317.82 135.04,311.14 134.32,297.98 C133.63,285.39 135.81,274.96 141.65,263.00 C147.05,251.95 158.55,240.70 170.22,235.07 C175.02,232.75 179.92,231.00 181.11,231.18 C182.91,231.45 182.32,232.15 177.62,235.38 C166.76,242.84 156.92,256.47 152.28,270.50 C150.00,277.38 149.63,280.25 149.58,291.00 C149.54,301.39 149.92,304.76 151.86,310.97 C158.64,332.69 172.20,348.63 192.50,358.76 C205.05,365.03 213.47,367.10 228.91,367.73 L 242.31 368.27 L 237.41 370.18 C215.79,378.57 184.84,381.89 159.85,378.48 ZM 269.25 220.01 C267.46,218.92 266.00,217.52 266.00,216.91 C266.00,216.29 265.30,216.05 264.45,216.38 C263.43,216.77 263.14,216.58 263.61,215.82 C264.10,215.03 263.76,214.88 262.52,215.35 C261.08,215.91 260.94,215.77 261.85,214.68 C262.47,213.93 262.73,213.06 262.41,212.74 C262.10,212.43 263.00,210.10 264.41,207.56 C270.96,195.83 277.49,169.97 273.89,170.02 C273.12,170.03 269.35,170.50 265.50,171.07 C261.65,171.63 237.57,172.24 212.00,172.42 C161.71,172.79 156.83,173.22 141.73,178.66 C133.65,181.58 118.73,189.06 115.70,191.71 C114.58,192.69 113.99,192.94 114.39,192.25 C114.79,191.56 114.69,191.00 114.18,191.00 C113.66,191.00 112.99,191.95 112.68,193.10 C112.35,194.36 111.67,194.92 110.98,194.49 C110.15,193.97 110.13,193.47 110.91,192.69 C112.28,191.32 112.34,189.67 111.00,190.50 C110.45,190.84 110.00,190.69 110.00,190.18 C110.00,188.57 105.10,188.18 103.84,189.69 C102.92,190.80 102.51,190.83 101.90,189.84 C101.31,188.88 100.57,189.04 98.81,190.54 L 96.50 192.50 L 98.44 190.21 C99.50,188.96 100.94,188.15 101.64,188.41 C102.42,188.71 102.69,188.35 102.34,187.45 C101.80,186.04 101.06,186.20 97.95,188.40 C97.10,189.01 97.44,188.50 98.71,187.29 C99.99,186.07 101.70,185.33 102.52,185.65 C103.54,186.04 103.84,185.76 103.47,184.77 C102.38,181.94 117.81,171.44 131.15,165.94 C149.82,158.24 160.77,157.02 211.20,157.01 C253.15,157.00 265.72,156.10 281.00,152.04 C292.97,148.86 292.10,147.92 291.40,163.25 C290.66,179.20 288.23,191.43 283.96,200.65 C282.22,204.42 280.11,208.96 279.28,210.75 C278.45,212.54 277.35,214.00 276.83,214.00 C276.31,214.00 276.16,214.45 276.49,214.99 C276.83,215.54 276.01,217.08 274.66,218.43 C273.31,219.78 272.46,221.13 272.77,221.44 C273.87,222.54 272.45,221.96 269.25,220.01 ZM 135.00 219.08 C135.00,218.58 135.56,217.94 136.25,217.66 C137.21,217.27 137.20,217.14 136.19,217.08 C135.47,217.04 135.16,216.55 135.49,216.01 C135.88,215.39 136.60,215.48 137.45,216.26 C138.39,217.12 138.49,217.88 137.78,218.75 C136.58,220.21 135.00,220.40 135.00,219.08 ZM 132.36 216.51 C132.05,215.68 131.28,215.32 130.65,215.70 C130.01,216.08 130.09,215.66 130.82,214.75 C132.48,212.70 134.91,213.53 134.72,216.08 C134.55,218.36 133.17,218.61 132.36,216.51 ZM 119.00 138.03 C120.96,136.81 124.63,133.95 127.06,131.75 C129.05,129.95 129.79,127.39 128.00,128.50 C127.45,128.84 127.00,128.68 127.00,128.14 C127.00,127.61 125.39,127.29 123.42,127.45 C117.20,127.94 121.61,125.49 131.10,123.16 C151.88,118.08 155.54,117.80 214.50,116.98 C274.16,116.14 277.69,115.87 299.14,110.49 C308.13,108.24 317.44,104.69 328.50,99.32 C330.99,98.11 331.21,98.10 329.77,99.28 C328.81,100.06 328.36,101.06 328.77,101.51 C329.17,101.96 328.97,102.02 328.32,101.64 C327.67,101.27 326.86,101.42 326.51,101.98 C326.16,102.54 326.39,103.00 327.00,103.00 C327.61,103.00 327.90,103.36 327.62,103.80 C326.81,105.12 328.48,107.00 332.09,108.80 C333.96,109.73 335.50,110.95 335.50,111.50 C335.50,114.01 315.42,122.71 301.59,126.18 C282.28,131.03 280.22,131.17 217.50,131.98 C156.26,132.78 147.80,133.30 128.18,137.45 C119.54,139.28 116.71,139.46 119.00,138.03 Z" fill="rgb(240,241,242)"/>
</g>
</svg>