<svg xmlns="http://www.w3.org/2000/svg" viewBox="0 0 406 406" fill="white">
<path d="M378,37 L338,57 L302,64 L146,70 L82,102 L47,144 L27,205 L34,272 L67,329 L101,357 L149,376 L188,379 L240,368 L185,356 L152,317 L152,265 L183,230 L150,249 L134,284 L140,326 L171,363 L138,357 L112,341 L93,320 L79,287 L85,228 L112,193 L150,174 L274,169 L258,218 L215,250 L203,251 L215,197 L164,198 L134,211 L111,240 L106,276 L124,236 L166,212 L200,212 L191,243 L169,268 L234,264 L291,241 L331,206 L360,159 L374,109 Z"/>
<path d="M123,350 L124,349 L125,350 L124,351 Z"/>
<path d="M118,347 L119,346 L120,347 L119,348 Z"/>
<path d="M114,345 L115,344 L116,345 L115,346 Z"/>
<path d="M109,342 L110,341 L111,342 L111,343 L110,344 L109,343 Z"/>
<path d="M110,341 L111,340 L112,341 L111,342 Z"/>
<path d="M107,341 L108,340 L109,341 L108,342 Z"/>
<path d="M105,340 L106,339 L107,340 L106,341 Z"/>
<path d="M107,339 L108,338 L109,339 L108,340 Z"/>
<path d="M104,339 L105,338 L106,339 L105,340 Z"/>
<path d="M102,338 L103,337 L104,338 L103,339 Z"/>
<path d="M101,337 L102,336 L103,337 L102,338 Z"/>
<path d="M99,336 L100,335 L101,336 L100,337 Z"/>
<path d="M99,333 L100,332 L101,333 L100,334 Z"/>
<path d="M94,326 L95,325 L96,326 L95,327 Z"/>
<path d="M85,321 L86,320 L87,321 L86,322 Z"/>
<path d="M77,312 L78,311 L79,312 L78,313 Z"/>
<path d="M74,312 L75,311 L76,312 L75,313 Z"/>
<path d="M361,92 L351,141 L330,183 L302,214 L260,240 L257,239 L270,225 L284,199 L290,170 L290,150 L251,157 L157,158 L129,166 L108,178 L84,202 L69,232 L65,250 L65,280 L75,311 L68,306 L47,264 L42,220 L45,205 L56,182 L85,153 L112,140 L142,133 L265,131 L298,126 L332,113 Z"/>
<path d="M362,65 L356,75 L339,92 L306,109 L260,117 L165,117 L142,120 L113,128 L94,137 L68,157 L54,176 L48,190 L45,190 L52,167 L72,133 L104,104 L131,90 L171,81 L295,80 L332,74 Z"/>
</svg>